<mxfile host="Electron" agent="Mozilla/5.0 (Windows NT 10.0; Win64; x64) AppleWebKit/537.36 (KHTML, like Gecko) draw.io/25.0.2 Chrome/128.0.6613.186 Electron/32.2.5 Safari/537.36" version="25.0.2">
  <diagram name="Страница — 1" id="C-drUPW33x2Zt6dfCn86">
    <mxGraphModel dx="939" dy="1779" grid="1" gridSize="10" guides="1" tooltips="1" connect="1" arrows="1" fold="1" page="1" pageScale="1" pageWidth="827" pageHeight="1169" math="0" shadow="0">
      <root>
        <mxCell id="0" />
        <mxCell id="1" parent="0" />
        <mxCell id="6_Jl2t81EVsBpzzJ7YuF-3" style="edgeStyle=orthogonalEdgeStyle;rounded=0;orthogonalLoop=1;jettySize=auto;html=1;" parent="1" source="6_Jl2t81EVsBpzzJ7YuF-1" target="6_Jl2t81EVsBpzzJ7YuF-2" edge="1">
          <mxGeometry relative="1" as="geometry">
            <Array as="points">
              <mxPoint x="400" y="70" />
              <mxPoint x="400" y="70" />
            </Array>
          </mxGeometry>
        </mxCell>
        <mxCell id="6_Jl2t81EVsBpzzJ7YuF-1" value="Начало" style="ellipse;whiteSpace=wrap;html=1;" parent="1" vertex="1">
          <mxGeometry x="340" width="120" height="40" as="geometry" />
        </mxCell>
        <mxCell id="6_Jl2t81EVsBpzzJ7YuF-24" style="edgeStyle=orthogonalEdgeStyle;rounded=0;orthogonalLoop=1;jettySize=auto;html=1;entryX=0.5;entryY=0;entryDx=0;entryDy=0;" parent="1" source="6_Jl2t81EVsBpzzJ7YuF-2" target="6_Jl2t81EVsBpzzJ7YuF-16" edge="1">
          <mxGeometry relative="1" as="geometry" />
        </mxCell>
        <mxCell id="6_Jl2t81EVsBpzzJ7YuF-2" value="int main()" style="shape=process;whiteSpace=wrap;html=1;backgroundOutline=1;" parent="1" vertex="1">
          <mxGeometry x="340" y="80" width="120" height="60" as="geometry" />
        </mxCell>
        <mxCell id="GQ348CkJGkkBjwNygMKz-3" style="edgeStyle=orthogonalEdgeStyle;rounded=0;orthogonalLoop=1;jettySize=auto;html=1;" parent="1" source="6_Jl2t81EVsBpzzJ7YuF-4" edge="1">
          <mxGeometry relative="1" as="geometry">
            <mxPoint x="400" y="55" as="targetPoint" />
          </mxGeometry>
        </mxCell>
        <mxCell id="6_Jl2t81EVsBpzzJ7YuF-4" value="" style="strokeWidth=2;html=1;shape=mxgraph.flowchart.annotation_2;align=left;labelPosition=right;pointerEvents=1;" parent="1" vertex="1">
          <mxGeometry x="420" width="130" height="110" as="geometry" />
        </mxCell>
        <mxCell id="6_Jl2t81EVsBpzzJ7YuF-7" value="#include &amp;lt;iostream&amp;gt;" style="text;html=1;align=center;verticalAlign=middle;whiteSpace=wrap;rounded=0;" parent="1" vertex="1">
          <mxGeometry x="490" width="120" height="30" as="geometry" />
        </mxCell>
        <mxCell id="6_Jl2t81EVsBpzzJ7YuF-8" value="#include &amp;lt;clocale&amp;gt;" style="text;html=1;align=center;verticalAlign=middle;whiteSpace=wrap;rounded=0;" parent="1" vertex="1">
          <mxGeometry x="490" y="20" width="110" height="30" as="geometry" />
        </mxCell>
        <mxCell id="6_Jl2t81EVsBpzzJ7YuF-9" value="using namespace std;" style="text;html=1;align=center;verticalAlign=middle;whiteSpace=wrap;rounded=0;" parent="1" vertex="1">
          <mxGeometry x="490" y="60" width="130" height="30" as="geometry" />
        </mxCell>
        <mxCell id="6_Jl2t81EVsBpzzJ7YuF-26" style="edgeStyle=orthogonalEdgeStyle;rounded=0;orthogonalLoop=1;jettySize=auto;html=1;" parent="1" source="6_Jl2t81EVsBpzzJ7YuF-16" target="6_Jl2t81EVsBpzzJ7YuF-21" edge="1">
          <mxGeometry relative="1" as="geometry" />
        </mxCell>
        <mxCell id="6_Jl2t81EVsBpzzJ7YuF-16" value="const double eps = pow(10,-6);&lt;div&gt;&lt;span style=&quot;background-color: initial;&quot;&gt;bool f = false;&lt;/span&gt;&lt;br&gt;&lt;/div&gt;&lt;div&gt;int cnt=0;&lt;/div&gt;" style="rounded=0;whiteSpace=wrap;html=1;align=left;" parent="1" vertex="1">
          <mxGeometry x="315" y="160" width="170" height="50" as="geometry" />
        </mxCell>
        <mxCell id="6_Jl2t81EVsBpzzJ7YuF-19" value="double x0, a, b, x1, x;" style="text;html=1;align=center;verticalAlign=middle;whiteSpace=wrap;rounded=0;" parent="1" vertex="1">
          <mxGeometry x="495" y="80" width="120" height="30" as="geometry" />
        </mxCell>
        <mxCell id="6_Jl2t81EVsBpzzJ7YuF-27" style="edgeStyle=orthogonalEdgeStyle;rounded=0;orthogonalLoop=1;jettySize=auto;html=1;" parent="1" source="6_Jl2t81EVsBpzzJ7YuF-21" edge="1">
          <mxGeometry relative="1" as="geometry">
            <mxPoint x="400" y="290" as="targetPoint" />
          </mxGeometry>
        </mxCell>
        <mxCell id="6_Jl2t81EVsBpzzJ7YuF-21" value="cout &amp;lt;&amp;lt; &quot;Введите границы интервала [a,b] (a &amp;lt; b): &quot;;" style="shape=parallelogram;perimeter=parallelogramPerimeter;whiteSpace=wrap;html=1;fixedSize=1;" parent="1" vertex="1">
          <mxGeometry x="240.63" y="230" width="318.75" height="40" as="geometry" />
        </mxCell>
        <mxCell id="6_Jl2t81EVsBpzzJ7YuF-30" style="edgeStyle=orthogonalEdgeStyle;rounded=0;orthogonalLoop=1;jettySize=auto;html=1;" parent="1" source="6_Jl2t81EVsBpzzJ7YuF-28" target="6_Jl2t81EVsBpzzJ7YuF-29" edge="1">
          <mxGeometry relative="1" as="geometry" />
        </mxCell>
        <mxCell id="6_Jl2t81EVsBpzzJ7YuF-28" value="cin &amp;gt;&amp;gt; a &amp;gt;&amp;gt; b;" style="shape=parallelogram;perimeter=parallelogramPerimeter;whiteSpace=wrap;html=1;fixedSize=1;" parent="1" vertex="1">
          <mxGeometry x="340" y="290" width="120" height="30" as="geometry" />
        </mxCell>
        <mxCell id="6_Jl2t81EVsBpzzJ7YuF-31" style="edgeStyle=orthogonalEdgeStyle;rounded=0;orthogonalLoop=1;jettySize=auto;html=1;" parent="1" source="6_Jl2t81EVsBpzzJ7YuF-29" edge="1">
          <mxGeometry relative="1" as="geometry">
            <mxPoint x="400" y="390" as="targetPoint" />
          </mxGeometry>
        </mxCell>
        <mxCell id="6_Jl2t81EVsBpzzJ7YuF-29" value="cout &amp;lt;&amp;lt; &quot;Введите начальное приближенное значение корня: &quot;;" style="shape=parallelogram;perimeter=parallelogramPerimeter;whiteSpace=wrap;html=1;fixedSize=1;" parent="1" vertex="1">
          <mxGeometry x="210" y="340" width="380" height="30" as="geometry" />
        </mxCell>
        <mxCell id="6_Jl2t81EVsBpzzJ7YuF-35" style="edgeStyle=orthogonalEdgeStyle;rounded=0;orthogonalLoop=1;jettySize=auto;html=1;" parent="1" source="6_Jl2t81EVsBpzzJ7YuF-33" target="6_Jl2t81EVsBpzzJ7YuF-34" edge="1">
          <mxGeometry relative="1" as="geometry" />
        </mxCell>
        <mxCell id="6_Jl2t81EVsBpzzJ7YuF-33" value="cin &amp;gt;&amp;gt; x0;" style="shape=parallelogram;perimeter=parallelogramPerimeter;whiteSpace=wrap;html=1;fixedSize=1;" parent="1" vertex="1">
          <mxGeometry x="340" y="390" width="120" height="30" as="geometry" />
        </mxCell>
        <mxCell id="6_Jl2t81EVsBpzzJ7YuF-37" style="edgeStyle=orthogonalEdgeStyle;rounded=0;orthogonalLoop=1;jettySize=auto;html=1;entryX=0.5;entryY=0;entryDx=0;entryDy=0;" parent="1" source="6_Jl2t81EVsBpzzJ7YuF-34" target="6_Jl2t81EVsBpzzJ7YuF-39" edge="1">
          <mxGeometry relative="1" as="geometry">
            <mxPoint x="400" y="540" as="targetPoint" />
            <Array as="points" />
          </mxGeometry>
        </mxCell>
        <mxCell id="6_Jl2t81EVsBpzzJ7YuF-45" style="edgeStyle=orthogonalEdgeStyle;rounded=0;orthogonalLoop=1;jettySize=auto;html=1;exitX=1;exitY=0.5;exitDx=0;exitDy=0;entryX=0.5;entryY=0;entryDx=0;entryDy=0;" parent="1" source="6_Jl2t81EVsBpzzJ7YuF-34" target="6_Jl2t81EVsBpzzJ7YuF-54" edge="1">
          <mxGeometry relative="1" as="geometry">
            <mxPoint x="400" y="730" as="targetPoint" />
            <mxPoint x="485" y="480" as="sourcePoint" />
            <Array as="points">
              <mxPoint x="620" y="490" />
              <mxPoint x="620" y="710" />
              <mxPoint x="400" y="710" />
            </Array>
          </mxGeometry>
        </mxCell>
        <mxCell id="6_Jl2t81EVsBpzzJ7YuF-34" value="while (x0 &amp;gt; b || x0 &amp;lt; a)&amp;nbsp;" style="rhombus;whiteSpace=wrap;html=1;" parent="1" vertex="1">
          <mxGeometry x="315" y="450" width="170" height="80" as="geometry" />
        </mxCell>
        <mxCell id="6_Jl2t81EVsBpzzJ7YuF-36" value="{" style="text;html=1;align=center;verticalAlign=middle;whiteSpace=wrap;rounded=0;" parent="1" vertex="1">
          <mxGeometry x="354" y="140" width="60" height="20" as="geometry" />
        </mxCell>
        <mxCell id="6_Jl2t81EVsBpzzJ7YuF-40" style="edgeStyle=orthogonalEdgeStyle;rounded=0;orthogonalLoop=1;jettySize=auto;html=1;" parent="1" source="6_Jl2t81EVsBpzzJ7YuF-39" target="6_Jl2t81EVsBpzzJ7YuF-41" edge="1">
          <mxGeometry relative="1" as="geometry">
            <mxPoint x="400" y="590" as="targetPoint" />
          </mxGeometry>
        </mxCell>
        <mxCell id="6_Jl2t81EVsBpzzJ7YuF-39" value="cout &amp;lt;&amp;lt; &quot;Начальное значение корня не входит в интервал [a,b]&quot; &amp;lt;&amp;lt; endl;" style="shape=parallelogram;perimeter=parallelogramPerimeter;whiteSpace=wrap;html=1;fixedSize=1;" parent="1" vertex="1">
          <mxGeometry x="185" y="555" width="430" height="30" as="geometry" />
        </mxCell>
        <mxCell id="6_Jl2t81EVsBpzzJ7YuF-44" style="edgeStyle=orthogonalEdgeStyle;rounded=0;orthogonalLoop=1;jettySize=auto;html=1;entryX=0.5;entryY=0;entryDx=0;entryDy=0;" parent="1" source="6_Jl2t81EVsBpzzJ7YuF-41" target="6_Jl2t81EVsBpzzJ7YuF-43" edge="1">
          <mxGeometry relative="1" as="geometry" />
        </mxCell>
        <mxCell id="6_Jl2t81EVsBpzzJ7YuF-41" value="cout &amp;lt;&amp;lt; &quot;Введите начальное значение корня: &quot;;" style="shape=parallelogram;perimeter=parallelogramPerimeter;whiteSpace=wrap;html=1;fixedSize=1;" parent="1" vertex="1">
          <mxGeometry x="252.5" y="600" width="295" height="30" as="geometry" />
        </mxCell>
        <mxCell id="6_Jl2t81EVsBpzzJ7YuF-52" style="edgeStyle=orthogonalEdgeStyle;rounded=0;orthogonalLoop=1;jettySize=auto;html=1;" parent="1" source="6_Jl2t81EVsBpzzJ7YuF-43" edge="1">
          <mxGeometry relative="1" as="geometry">
            <mxPoint x="400" y="430" as="targetPoint" />
            <Array as="points">
              <mxPoint x="400" y="700" />
              <mxPoint x="180" y="700" />
              <mxPoint x="180" y="430" />
            </Array>
          </mxGeometry>
        </mxCell>
        <mxCell id="6_Jl2t81EVsBpzzJ7YuF-43" value="cin &amp;gt;&amp;gt; x0;" style="shape=parallelogram;perimeter=parallelogramPerimeter;whiteSpace=wrap;html=1;fixedSize=1;" parent="1" vertex="1">
          <mxGeometry x="340" y="650" width="120" height="30" as="geometry" />
        </mxCell>
        <mxCell id="6_Jl2t81EVsBpzzJ7YuF-76" style="edgeStyle=orthogonalEdgeStyle;rounded=0;orthogonalLoop=1;jettySize=auto;html=1;entryX=0.5;entryY=0;entryDx=0;entryDy=0;" parent="1" source="6_Jl2t81EVsBpzzJ7YuF-54" target="6_Jl2t81EVsBpzzJ7YuF-58" edge="1">
          <mxGeometry relative="1" as="geometry" />
        </mxCell>
        <mxCell id="GQ348CkJGkkBjwNygMKz-16" style="edgeStyle=orthogonalEdgeStyle;rounded=0;orthogonalLoop=1;jettySize=auto;html=1;" parent="1" source="6_Jl2t81EVsBpzzJ7YuF-54" edge="1">
          <mxGeometry relative="1" as="geometry">
            <mxPoint x="400" y="1110" as="targetPoint" />
            <Array as="points">
              <mxPoint x="680" y="770" />
              <mxPoint x="680" y="1090" />
            </Array>
          </mxGeometry>
        </mxCell>
        <mxCell id="6_Jl2t81EVsBpzzJ7YuF-54" value="while (f != true)" style="rhombus;whiteSpace=wrap;html=1;" parent="1" vertex="1">
          <mxGeometry x="345" y="740" width="110" height="60" as="geometry" />
        </mxCell>
        <mxCell id="6_Jl2t81EVsBpzzJ7YuF-59" style="edgeStyle=orthogonalEdgeStyle;rounded=0;orthogonalLoop=1;jettySize=auto;html=1;" parent="1" source="6_Jl2t81EVsBpzzJ7YuF-58" target="6_Jl2t81EVsBpzzJ7YuF-60" edge="1">
          <mxGeometry relative="1" as="geometry">
            <mxPoint x="400" y="860" as="targetPoint" />
          </mxGeometry>
        </mxCell>
        <mxCell id="6_Jl2t81EVsBpzzJ7YuF-58" value="&amp;nbsp;x1 =&amp;nbsp;x0 - (exp(x0) - exp(-x0) - 2) / ((exp(2*x0)+1)/(exp(x0)));" style="rounded=0;whiteSpace=wrap;html=1;" parent="1" vertex="1">
          <mxGeometry x="237.5" y="820" width="325" height="30" as="geometry" />
        </mxCell>
        <mxCell id="6_Jl2t81EVsBpzzJ7YuF-61" style="edgeStyle=orthogonalEdgeStyle;rounded=0;orthogonalLoop=1;jettySize=auto;html=1;entryX=0.5;entryY=0;entryDx=0;entryDy=0;" parent="1" source="6_Jl2t81EVsBpzzJ7YuF-60" target="6_Jl2t81EVsBpzzJ7YuF-62" edge="1">
          <mxGeometry relative="1" as="geometry">
            <mxPoint x="300" y="950" as="targetPoint" />
            <Array as="points">
              <mxPoint x="300" y="910" />
            </Array>
          </mxGeometry>
        </mxCell>
        <mxCell id="6_Jl2t81EVsBpzzJ7YuF-67" style="edgeStyle=orthogonalEdgeStyle;rounded=0;orthogonalLoop=1;jettySize=auto;html=1;exitX=1;exitY=0.5;exitDx=0;exitDy=0;" parent="1" source="6_Jl2t81EVsBpzzJ7YuF-60" target="6_Jl2t81EVsBpzzJ7YuF-68" edge="1">
          <mxGeometry relative="1" as="geometry">
            <mxPoint x="500" y="930" as="targetPoint" />
            <Array as="points">
              <mxPoint x="550" y="910" />
              <mxPoint x="550" y="950" />
            </Array>
          </mxGeometry>
        </mxCell>
        <mxCell id="6_Jl2t81EVsBpzzJ7YuF-60" value="if (abs(x0-x1) &amp;lt; eps)" style="rhombus;whiteSpace=wrap;html=1;" parent="1" vertex="1">
          <mxGeometry x="330" y="870" width="140" height="80" as="geometry" />
        </mxCell>
        <mxCell id="6_Jl2t81EVsBpzzJ7YuF-63" style="edgeStyle=orthogonalEdgeStyle;rounded=0;orthogonalLoop=1;jettySize=auto;html=1;" parent="1" source="6_Jl2t81EVsBpzzJ7YuF-62" target="6_Jl2t81EVsBpzzJ7YuF-64" edge="1">
          <mxGeometry relative="1" as="geometry">
            <mxPoint x="300" y="990" as="targetPoint" />
          </mxGeometry>
        </mxCell>
        <mxCell id="6_Jl2t81EVsBpzzJ7YuF-62" value="x = x1;" style="rounded=0;whiteSpace=wrap;html=1;" parent="1" vertex="1">
          <mxGeometry x="270" y="930" width="60" height="20" as="geometry" />
        </mxCell>
        <mxCell id="6_Jl2t81EVsBpzzJ7YuF-65" style="edgeStyle=orthogonalEdgeStyle;rounded=0;orthogonalLoop=1;jettySize=auto;html=1;" parent="1" source="6_Jl2t81EVsBpzzJ7YuF-64" target="6_Jl2t81EVsBpzzJ7YuF-66" edge="1">
          <mxGeometry relative="1" as="geometry">
            <mxPoint x="300" y="1040" as="targetPoint" />
          </mxGeometry>
        </mxCell>
        <mxCell id="6_Jl2t81EVsBpzzJ7YuF-64" value="cout &amp;lt;&amp;lt;&amp;nbsp;&quot;Корень уравнения: &quot; &amp;lt;&amp;lt; x &amp;lt;&amp;lt; endl;" style="shape=parallelogram;perimeter=parallelogramPerimeter;whiteSpace=wrap;html=1;fixedSize=1;" parent="1" vertex="1">
          <mxGeometry x="160" y="970" width="280" height="30" as="geometry" />
        </mxCell>
        <mxCell id="6_Jl2t81EVsBpzzJ7YuF-87" style="edgeStyle=orthogonalEdgeStyle;rounded=0;orthogonalLoop=1;jettySize=auto;html=1;" parent="1" source="6_Jl2t81EVsBpzzJ7YuF-66" edge="1">
          <mxGeometry relative="1" as="geometry">
            <mxPoint x="400" y="1060" as="targetPoint" />
            <Array as="points">
              <mxPoint x="300" y="1060" />
              <mxPoint x="400" y="1060" />
            </Array>
          </mxGeometry>
        </mxCell>
        <mxCell id="6_Jl2t81EVsBpzzJ7YuF-66" value="f = true;" style="rounded=0;whiteSpace=wrap;html=1;" parent="1" vertex="1">
          <mxGeometry x="270" y="1020" width="60" height="20" as="geometry" />
        </mxCell>
        <mxCell id="GQ348CkJGkkBjwNygMKz-10" style="edgeStyle=orthogonalEdgeStyle;rounded=0;orthogonalLoop=1;jettySize=auto;html=1;entryX=0.5;entryY=0;entryDx=0;entryDy=0;" parent="1" source="6_Jl2t81EVsBpzzJ7YuF-68" target="GQ348CkJGkkBjwNygMKz-8" edge="1">
          <mxGeometry relative="1" as="geometry" />
        </mxCell>
        <mxCell id="6_Jl2t81EVsBpzzJ7YuF-68" value="x0 = x1;" style="rounded=0;whiteSpace=wrap;html=1;" parent="1" vertex="1">
          <mxGeometry x="520" y="930" width="60" height="20" as="geometry" />
        </mxCell>
        <mxCell id="6_Jl2t81EVsBpzzJ7YuF-75" value="return 0;" style="ellipse;whiteSpace=wrap;html=1;" parent="1" vertex="1">
          <mxGeometry x="360" y="1110" width="80" height="30" as="geometry" />
        </mxCell>
        <mxCell id="6_Jl2t81EVsBpzzJ7YuF-77" value="" style="endArrow=none;html=1;rounded=0;" parent="1" edge="1">
          <mxGeometry width="50" height="50" relative="1" as="geometry">
            <mxPoint x="150" y="1080" as="sourcePoint" />
            <mxPoint x="150" y="720" as="targetPoint" />
          </mxGeometry>
        </mxCell>
        <mxCell id="6_Jl2t81EVsBpzzJ7YuF-78" value="" style="endArrow=classic;html=1;rounded=0;" parent="1" edge="1">
          <mxGeometry width="50" height="50" relative="1" as="geometry">
            <mxPoint x="150" y="720" as="sourcePoint" />
            <mxPoint x="400" y="720" as="targetPoint" />
          </mxGeometry>
        </mxCell>
        <mxCell id="6_Jl2t81EVsBpzzJ7YuF-81" value="}&lt;div&gt;&lt;br&gt;&lt;/div&gt;" style="text;html=1;align=center;verticalAlign=middle;whiteSpace=wrap;rounded=0;" parent="1" vertex="1">
          <mxGeometry x="372" y="1140" width="60" height="30" as="geometry" />
        </mxCell>
        <mxCell id="6_Jl2t81EVsBpzzJ7YuF-82" value="1" style="text;html=1;align=center;verticalAlign=middle;whiteSpace=wrap;rounded=0;" parent="1" vertex="1">
          <mxGeometry x="396" y="532.5" width="36" height="15" as="geometry" />
        </mxCell>
        <mxCell id="6_Jl2t81EVsBpzzJ7YuF-83" value="0" style="text;html=1;align=center;verticalAlign=middle;whiteSpace=wrap;rounded=0;" parent="1" vertex="1">
          <mxGeometry x="470" y="460" width="60" height="30" as="geometry" />
        </mxCell>
        <mxCell id="6_Jl2t81EVsBpzzJ7YuF-84" value="0" style="text;html=1;align=center;verticalAlign=middle;whiteSpace=wrap;rounded=0;" parent="1" vertex="1">
          <mxGeometry x="444" y="740" width="60" height="30" as="geometry" />
        </mxCell>
        <mxCell id="6_Jl2t81EVsBpzzJ7YuF-85" value="1" style="text;html=1;align=center;verticalAlign=middle;whiteSpace=wrap;rounded=0;" parent="1" vertex="1">
          <mxGeometry x="396" y="798.25" width="36" height="17.25" as="geometry" />
        </mxCell>
        <mxCell id="6_Jl2t81EVsBpzzJ7YuF-86" value="}" style="text;html=1;align=center;verticalAlign=middle;whiteSpace=wrap;rounded=0;" parent="1" vertex="1">
          <mxGeometry x="280" y="1040" width="60" height="20" as="geometry" />
        </mxCell>
        <mxCell id="6_Jl2t81EVsBpzzJ7YuF-91" value="{" style="text;html=1;align=center;verticalAlign=middle;whiteSpace=wrap;rounded=0;" parent="1" vertex="1">
          <mxGeometry x="261.25" y="900" width="60" height="30" as="geometry" />
        </mxCell>
        <mxCell id="6_Jl2t81EVsBpzzJ7YuF-92" value="1" style="text;html=1;align=center;verticalAlign=middle;whiteSpace=wrap;rounded=0;" parent="1" vertex="1">
          <mxGeometry x="285" y="880" width="60" height="30" as="geometry" />
        </mxCell>
        <mxCell id="6_Jl2t81EVsBpzzJ7YuF-93" value="0" style="text;html=1;align=center;verticalAlign=middle;whiteSpace=wrap;rounded=0;" parent="1" vertex="1">
          <mxGeometry x="455" y="880" width="60" height="30" as="geometry" />
        </mxCell>
        <mxCell id="6_Jl2t81EVsBpzzJ7YuF-96" value="}" style="text;html=1;align=center;verticalAlign=middle;whiteSpace=wrap;rounded=0;" parent="1" vertex="1">
          <mxGeometry x="380" y="1060" width="60" height="30" as="geometry" />
        </mxCell>
        <mxCell id="6_Jl2t81EVsBpzzJ7YuF-98" value="}" style="text;html=1;align=center;verticalAlign=middle;whiteSpace=wrap;rounded=0;" parent="1" vertex="1">
          <mxGeometry x="380" y="680" width="60" height="20" as="geometry" />
        </mxCell>
        <mxCell id="6_Jl2t81EVsBpzzJ7YuF-99" value="{" style="text;html=1;align=center;verticalAlign=middle;whiteSpace=wrap;rounded=0;" parent="1" vertex="1">
          <mxGeometry x="370" y="532.25" width="35" height="15.5" as="geometry" />
        </mxCell>
        <mxCell id="GQ348CkJGkkBjwNygMKz-2" value="#include &amp;lt;cmath&lt;span style=&quot;background-color: initial;&quot;&gt;&amp;gt;&lt;/span&gt;" style="text;html=1;align=center;verticalAlign=middle;whiteSpace=wrap;rounded=0;" parent="1" vertex="1">
          <mxGeometry x="490" y="40" width="110" height="30" as="geometry" />
        </mxCell>
        <mxCell id="GQ348CkJGkkBjwNygMKz-4" value="{" style="text;html=1;align=center;verticalAlign=middle;whiteSpace=wrap;rounded=0;" parent="1" vertex="1">
          <mxGeometry x="370" y="798.25" width="35" height="15.5" as="geometry" />
        </mxCell>
        <mxCell id="GQ348CkJGkkBjwNygMKz-5" value="{" style="text;html=1;align=center;verticalAlign=middle;whiteSpace=wrap;rounded=0;" parent="1" vertex="1">
          <mxGeometry x="520" y="910" width="35" height="20" as="geometry" />
        </mxCell>
        <mxCell id="GQ348CkJGkkBjwNygMKz-11" style="edgeStyle=orthogonalEdgeStyle;rounded=0;orthogonalLoop=1;jettySize=auto;html=1;" parent="1" source="GQ348CkJGkkBjwNygMKz-8" edge="1">
          <mxGeometry relative="1" as="geometry">
            <mxPoint x="550" y="1020" as="targetPoint" />
          </mxGeometry>
        </mxCell>
        <mxCell id="GQ348CkJGkkBjwNygMKz-8" value="cout &amp;lt;&amp;lt; &quot;x&quot; &amp;lt;&amp;lt; cnt &amp;lt;&amp;lt; &quot;: &quot; &amp;lt;&amp;lt; x0 &amp;lt;&amp;lt; endl;" style="shape=parallelogram;perimeter=parallelogramPerimeter;whiteSpace=wrap;html=1;fixedSize=1;" parent="1" vertex="1">
          <mxGeometry x="430" y="970" width="240" height="30" as="geometry" />
        </mxCell>
        <mxCell id="GQ348CkJGkkBjwNygMKz-13" style="edgeStyle=orthogonalEdgeStyle;rounded=0;orthogonalLoop=1;jettySize=auto;html=1;" parent="1" source="GQ348CkJGkkBjwNygMKz-12" edge="1">
          <mxGeometry relative="1" as="geometry">
            <mxPoint x="400" y="1060" as="targetPoint" />
            <Array as="points">
              <mxPoint x="550" y="1050" />
              <mxPoint x="550" y="1060" />
            </Array>
          </mxGeometry>
        </mxCell>
        <mxCell id="GQ348CkJGkkBjwNygMKz-12" value="cnt+=1;" style="rounded=0;whiteSpace=wrap;html=1;" parent="1" vertex="1">
          <mxGeometry x="517.5" y="1020" width="65" height="20" as="geometry" />
        </mxCell>
        <mxCell id="GQ348CkJGkkBjwNygMKz-14" value="" style="endArrow=none;html=1;rounded=0;" parent="1" edge="1">
          <mxGeometry width="50" height="50" relative="1" as="geometry">
            <mxPoint x="400" y="1080" as="sourcePoint" />
            <mxPoint x="400" y="1060" as="targetPoint" />
          </mxGeometry>
        </mxCell>
        <mxCell id="GQ348CkJGkkBjwNygMKz-15" value="" style="endArrow=none;html=1;rounded=0;" parent="1" edge="1">
          <mxGeometry width="50" height="50" relative="1" as="geometry">
            <mxPoint x="150" y="1080" as="sourcePoint" />
            <mxPoint x="400" y="1080" as="targetPoint" />
          </mxGeometry>
        </mxCell>
        <mxCell id="GQ348CkJGkkBjwNygMKz-17" value="}" style="text;html=1;align=center;verticalAlign=middle;whiteSpace=wrap;rounded=0;" parent="1" vertex="1">
          <mxGeometry x="530" y="1035" width="60" height="30" as="geometry" />
        </mxCell>
      </root>
    </mxGraphModel>
  </diagram>
</mxfile>
